<svg xmlns="http://www.w3.org/2000/svg" viewBox="0 0 410 404"><defs><linearGradient id="a" x1="99.7%" x2="15.8%" y1="16.6%" y2="97.3%"><stop offset="0" stop-color="#41d1ff"/><stop offset="1" stop-color="#bd34fe"/></linearGradient><linearGradient id="b" x1="16.4%" x2="83.6%" y1="-7.4%" y2="100.2%"><stop offset="0" stop-color="#ffea83"/><stop offset="0.08" stop-color="#ffdd35"/><stop offset="1" stop-color="#ffa800"/></linearGradient></defs><path fill="url(#a)" d="M399.6 59.5L215.6 388.3c-5.6 9.9-19.9 9.9-25.5 0L10.4 59.5c-5.8-10.2 1.6-22.8 13.1-22.5l177.7 4.5a14.5 14.5 0 0 1 13.7 9.5l54.7 152.3c2.9 8.1 14.6 8.1 17.6 0l54.7-152.3a14.5 14.5 0 0 1 13.7-9.5l44.6-1.1c11.5-.3 19 12.3 13.2 22.5Z"/><path fill="url(#b)" d="M305.8 12.4 205 180.3c-2.9 4.8-10 4.8-12.9 0L92.2 12.4c-3.3-5.4 0-12.4 6.5-12.4h200.6c6.5 0 9.8 7 6.5 12.4Z"/></svg>
